<mxfile host="app.diagrams.net" modified="2024-07-20T14:41:11.872Z" agent="Mozilla/5.0 (Windows NT 10.0; Win64; x64) AppleWebKit/537.36 (KHTML, like Gecko) Chrome/126.0.0.0 Safari/537.36" etag="sL5dFvOKRbLAaLrjW1sL" version="24.7.2" type="github">
  <diagram name="Page-1" id="f1b7ffb7-ca1e-a977-7cf5-a751b3c06c05">
    <mxGraphModel dx="1723" dy="915" grid="1" gridSize="10" guides="1" tooltips="1" connect="1" arrows="1" fold="1" page="1" pageScale="1" pageWidth="826" pageHeight="1169" background="none" math="0" shadow="0">
      <root>
        <mxCell id="0" />
        <mxCell id="1" parent="0" />
        <mxCell id="FpdwGnJEtoLcLrsZp1eF-64" value="" style="rounded=0;whiteSpace=wrap;html=1;movable=0;resizable=0;rotatable=0;deletable=0;editable=0;locked=1;connectable=0;" vertex="1" parent="1">
          <mxGeometry x="60" y="20" width="310" height="510" as="geometry" />
        </mxCell>
        <mxCell id="FpdwGnJEtoLcLrsZp1eF-75" value="" style="rounded=0;whiteSpace=wrap;html=1;movable=0;resizable=0;rotatable=0;deletable=0;editable=0;locked=1;connectable=0;" vertex="1" parent="1">
          <mxGeometry x="70" y="30" width="290" height="490" as="geometry" />
        </mxCell>
        <mxCell id="FpdwGnJEtoLcLrsZp1eF-65" value="&lt;font face=&quot;Comic Sans MS&quot;&gt;GAME MODES&lt;/font&gt;" style="rounded=1;whiteSpace=wrap;html=1;movable=0;resizable=0;rotatable=0;deletable=0;editable=0;locked=1;connectable=0;" vertex="1" parent="1">
          <mxGeometry x="130" y="310" width="170" height="40" as="geometry" />
        </mxCell>
        <mxCell id="FpdwGnJEtoLcLrsZp1eF-71" value="&lt;font face=&quot;Comic Sans MS&quot;&gt;ABOUT US&lt;/font&gt;" style="rounded=1;whiteSpace=wrap;html=1;movable=0;resizable=0;rotatable=0;deletable=0;editable=0;locked=1;connectable=0;" vertex="1" parent="1">
          <mxGeometry x="130" y="370" width="170" height="40" as="geometry" />
        </mxCell>
        <mxCell id="FpdwGnJEtoLcLrsZp1eF-74" value="&lt;font face=&quot;Comic Sans MS&quot;&gt;EXIT&lt;/font&gt;" style="rounded=1;whiteSpace=wrap;html=1;movable=0;resizable=0;rotatable=0;deletable=0;editable=0;locked=1;connectable=0;" vertex="1" parent="1">
          <mxGeometry x="130" y="430" width="170" height="40" as="geometry" />
        </mxCell>
        <mxCell id="FpdwGnJEtoLcLrsZp1eF-77" value="" style="rounded=0;whiteSpace=wrap;html=1;movable=1;resizable=1;rotatable=1;deletable=1;editable=1;locked=0;connectable=1;" vertex="1" parent="1">
          <mxGeometry x="80" y="40" width="270" height="180" as="geometry" />
        </mxCell>
        <mxCell id="FpdwGnJEtoLcLrsZp1eF-78" value="" style="endArrow=none;html=1;rounded=0;exitX=0;exitY=1;exitDx=0;exitDy=0;movable=1;resizable=1;rotatable=1;deletable=1;editable=1;locked=0;connectable=1;" edge="1" parent="1" source="FpdwGnJEtoLcLrsZp1eF-77">
          <mxGeometry width="50" height="50" relative="1" as="geometry">
            <mxPoint x="210" y="240" as="sourcePoint" />
            <mxPoint x="350" y="40" as="targetPoint" />
          </mxGeometry>
        </mxCell>
        <mxCell id="FpdwGnJEtoLcLrsZp1eF-80" value="" style="endArrow=none;html=1;rounded=0;entryX=0;entryY=0;entryDx=0;entryDy=0;exitX=1;exitY=1;exitDx=0;exitDy=0;movable=1;resizable=1;rotatable=1;deletable=1;editable=1;locked=0;connectable=1;" edge="1" parent="1" source="FpdwGnJEtoLcLrsZp1eF-77" target="FpdwGnJEtoLcLrsZp1eF-77">
          <mxGeometry width="50" height="50" relative="1" as="geometry">
            <mxPoint x="210" y="240" as="sourcePoint" />
            <mxPoint x="260" y="190" as="targetPoint" />
          </mxGeometry>
        </mxCell>
        <mxCell id="FpdwGnJEtoLcLrsZp1eF-81" value="" style="sketch=0;outlineConnect=0;fontColor=#232F3E;gradientColor=none;fillColor=#232F3D;strokeColor=none;dashed=0;verticalLabelPosition=bottom;verticalAlign=top;align=center;html=1;fontSize=12;fontStyle=0;aspect=fixed;pointerEvents=1;shape=mxgraph.aws4.gear;movable=0;resizable=0;rotatable=0;deletable=0;editable=0;locked=1;connectable=0;" vertex="1" parent="1">
          <mxGeometry x="80" y="492" width="20" height="20" as="geometry" />
        </mxCell>
        <mxCell id="FpdwGnJEtoLcLrsZp1eF-85" value="" style="shape=image;html=1;verticalAlign=top;verticalLabelPosition=bottom;labelBackgroundColor=#ffffff;imageAspect=0;aspect=fixed;image=https://cdn0.iconfinder.com/data/icons/phosphor-duotone-vol-3/256/speaker-low-duotone-128.png;movable=0;resizable=0;rotatable=0;deletable=0;editable=0;locked=1;connectable=0;" vertex="1" parent="1">
          <mxGeometry x="106" y="490" width="24" height="24" as="geometry" />
        </mxCell>
        <mxCell id="FpdwGnJEtoLcLrsZp1eF-86" value="" style="sketch=0;pointerEvents=1;shadow=0;dashed=0;html=1;strokeColor=none;labelPosition=center;verticalLabelPosition=bottom;verticalAlign=top;align=center;fillColor=#505050;shape=mxgraph.mscae.intune.account_portal;movable=0;resizable=0;rotatable=0;deletable=0;editable=0;locked=1;connectable=0;" vertex="1" parent="1">
          <mxGeometry x="330" y="492" width="20" height="20" as="geometry" />
        </mxCell>
        <mxCell id="FpdwGnJEtoLcLrsZp1eF-159" value="" style="rounded=0;whiteSpace=wrap;html=1;movable=0;resizable=0;rotatable=0;deletable=0;editable=0;locked=1;connectable=0;" vertex="1" parent="1">
          <mxGeometry x="450" y="20" width="310" height="510" as="geometry" />
        </mxCell>
        <mxCell id="FpdwGnJEtoLcLrsZp1eF-160" value="" style="rounded=0;whiteSpace=wrap;html=1;movable=0;resizable=0;rotatable=0;deletable=0;editable=0;locked=1;connectable=0;" vertex="1" parent="1">
          <mxGeometry x="460" y="30" width="290" height="490" as="geometry" />
        </mxCell>
        <mxCell id="FpdwGnJEtoLcLrsZp1eF-161" value="" style="rounded=0;whiteSpace=wrap;html=1;movable=0;resizable=0;rotatable=0;deletable=0;editable=0;locked=1;connectable=0;" vertex="1" parent="1">
          <mxGeometry x="63" y="640" width="310" height="510" as="geometry" />
        </mxCell>
        <mxCell id="FpdwGnJEtoLcLrsZp1eF-162" value="" style="rounded=0;whiteSpace=wrap;html=1;movable=0;resizable=0;rotatable=0;deletable=0;editable=0;locked=1;connectable=0;" vertex="1" parent="1">
          <mxGeometry x="73" y="650" width="290" height="490" as="geometry" />
        </mxCell>
        <mxCell id="FpdwGnJEtoLcLrsZp1eF-163" value="" style="rounded=0;whiteSpace=wrap;html=1;movable=0;resizable=0;rotatable=0;deletable=0;editable=0;locked=1;connectable=0;" vertex="1" parent="1">
          <mxGeometry x="453" y="640" width="310" height="510" as="geometry" />
        </mxCell>
        <mxCell id="FpdwGnJEtoLcLrsZp1eF-164" value="" style="rounded=0;whiteSpace=wrap;html=1;movable=0;resizable=0;rotatable=0;deletable=0;editable=0;locked=1;connectable=0;" vertex="1" parent="1">
          <mxGeometry x="463" y="650" width="290" height="490" as="geometry" />
        </mxCell>
        <mxCell id="FpdwGnJEtoLcLrsZp1eF-165" value="" style="rounded=0;whiteSpace=wrap;html=1;movable=0;resizable=0;rotatable=0;deletable=0;editable=0;locked=1;connectable=0;" vertex="1" parent="1">
          <mxGeometry x="63" y="1258" width="310" height="510" as="geometry" />
        </mxCell>
        <mxCell id="FpdwGnJEtoLcLrsZp1eF-166" value="" style="rounded=0;whiteSpace=wrap;html=1;movable=0;resizable=0;rotatable=0;deletable=0;editable=0;locked=1;connectable=0;" vertex="1" parent="1">
          <mxGeometry x="73" y="1268" width="290" height="490" as="geometry" />
        </mxCell>
        <mxCell id="FpdwGnJEtoLcLrsZp1eF-167" value="" style="rounded=0;whiteSpace=wrap;html=1;movable=0;resizable=0;rotatable=0;deletable=0;editable=0;locked=1;connectable=0;" vertex="1" parent="1">
          <mxGeometry x="453" y="1258" width="310" height="510" as="geometry" />
        </mxCell>
        <mxCell id="FpdwGnJEtoLcLrsZp1eF-168" value="" style="rounded=0;whiteSpace=wrap;html=1;movable=0;resizable=0;rotatable=0;deletable=0;editable=0;locked=1;connectable=0;" vertex="1" parent="1">
          <mxGeometry x="463" y="1268" width="290" height="490" as="geometry" />
        </mxCell>
        <mxCell id="FpdwGnJEtoLcLrsZp1eF-169" value="" style="rounded=0;whiteSpace=wrap;html=1;movable=0;resizable=0;rotatable=0;deletable=0;editable=0;locked=1;connectable=0;" vertex="1" parent="1">
          <mxGeometry x="63" y="1870" width="310" height="510" as="geometry" />
        </mxCell>
        <mxCell id="FpdwGnJEtoLcLrsZp1eF-170" value="" style="rounded=0;whiteSpace=wrap;html=1;movable=0;resizable=0;rotatable=0;deletable=0;editable=0;locked=1;connectable=0;" vertex="1" parent="1">
          <mxGeometry x="73" y="1880" width="290" height="490" as="geometry" />
        </mxCell>
        <mxCell id="FpdwGnJEtoLcLrsZp1eF-171" value="" style="rounded=0;whiteSpace=wrap;html=1;movable=0;resizable=0;rotatable=0;deletable=0;editable=0;locked=1;connectable=0;" vertex="1" parent="1">
          <mxGeometry x="453" y="1870" width="310" height="510" as="geometry" />
        </mxCell>
        <mxCell id="FpdwGnJEtoLcLrsZp1eF-172" value="" style="rounded=0;whiteSpace=wrap;html=1;movable=0;resizable=0;rotatable=0;deletable=0;editable=0;locked=1;connectable=0;" vertex="1" parent="1">
          <mxGeometry x="463" y="1880" width="290" height="490" as="geometry" />
        </mxCell>
        <mxCell id="FpdwGnJEtoLcLrsZp1eF-174" value="&lt;font face=&quot;Comic Sans MS&quot;&gt;CAMPAIGN&lt;/font&gt;" style="rounded=1;whiteSpace=wrap;html=1;movable=1;resizable=1;rotatable=1;deletable=1;editable=1;locked=0;connectable=1;" vertex="1" parent="1">
          <mxGeometry x="130" y="250" width="170" height="40" as="geometry" />
        </mxCell>
        <mxCell id="FpdwGnJEtoLcLrsZp1eF-66" value="&lt;font face=&quot;Comic Sans MS&quot;&gt;CONTINUE CAMPAIGN&lt;/font&gt;" style="rounded=1;whiteSpace=wrap;html=1;movable=0;resizable=0;rotatable=0;deletable=0;editable=0;locked=1;connectable=0;" vertex="1" parent="1">
          <mxGeometry x="523" y="240" width="170" height="40" as="geometry" />
        </mxCell>
        <mxCell id="FpdwGnJEtoLcLrsZp1eF-175" value="&lt;font face=&quot;Comic Sans MS&quot;&gt;NEW CAMPAIGN&lt;/font&gt;" style="rounded=1;whiteSpace=wrap;html=1;movable=0;resizable=0;rotatable=0;deletable=0;editable=0;locked=1;connectable=0;" vertex="1" parent="1">
          <mxGeometry x="523" y="305" width="170" height="40" as="geometry" />
        </mxCell>
        <mxCell id="FpdwGnJEtoLcLrsZp1eF-176" value="&lt;font style=&quot;font-size: 24px;&quot; face=&quot;Comic Sans MS&quot;&gt;GAME MODES&lt;/font&gt;" style="rounded=1;whiteSpace=wrap;html=1;movable=1;resizable=1;rotatable=1;deletable=1;editable=1;locked=0;connectable=1;" vertex="1" parent="1">
          <mxGeometry x="113" y="700" width="210" height="100" as="geometry" />
        </mxCell>
        <mxCell id="FpdwGnJEtoLcLrsZp1eF-178" value="&lt;font style=&quot;font-size: 24px;&quot; face=&quot;Comic Sans MS&quot;&gt;CAMPAIGN&lt;/font&gt;" style="rounded=1;whiteSpace=wrap;html=1;movable=0;resizable=0;rotatable=0;deletable=0;editable=0;locked=1;connectable=0;" vertex="1" parent="1">
          <mxGeometry x="503" y="80" width="210" height="100" as="geometry" />
        </mxCell>
        <mxCell id="FpdwGnJEtoLcLrsZp1eF-179" value="&lt;font face=&quot;Comic Sans MS&quot;&gt;MULTIPLAYER&lt;/font&gt;" style="rounded=1;whiteSpace=wrap;html=1;movable=1;resizable=1;rotatable=1;deletable=1;editable=1;locked=0;connectable=1;" vertex="1" parent="1">
          <mxGeometry x="133" y="830" width="170" height="40" as="geometry" />
        </mxCell>
        <mxCell id="FpdwGnJEtoLcLrsZp1eF-180" value="&lt;font face=&quot;Comic Sans MS&quot;&gt;CHALLENGE&lt;/font&gt;" style="rounded=1;whiteSpace=wrap;html=1;movable=1;resizable=1;rotatable=1;deletable=1;editable=1;locked=0;connectable=1;" vertex="1" parent="1">
          <mxGeometry x="133" y="895" width="170" height="40" as="geometry" />
        </mxCell>
        <mxCell id="FpdwGnJEtoLcLrsZp1eF-181" value="&lt;font face=&quot;Comic Sans MS&quot;&gt;PUZZLE&lt;/font&gt;" style="rounded=1;whiteSpace=wrap;html=1;movable=1;resizable=1;rotatable=1;deletable=1;editable=1;locked=0;connectable=1;" vertex="1" parent="1">
          <mxGeometry x="133" y="960" width="170" height="40" as="geometry" />
        </mxCell>
        <mxCell id="FpdwGnJEtoLcLrsZp1eF-183" value="" style="shape=flexArrow;endArrow=classic;html=1;rounded=0;" edge="1" parent="1">
          <mxGeometry width="50" height="50" relative="1" as="geometry">
            <mxPoint x="510" y="492" as="sourcePoint" />
            <mxPoint x="473" y="492" as="targetPoint" />
          </mxGeometry>
        </mxCell>
        <mxCell id="FpdwGnJEtoLcLrsZp1eF-188" value="" style="shape=flexArrow;endArrow=classic;html=1;rounded=0;" edge="1" parent="1">
          <mxGeometry width="50" height="50" relative="1" as="geometry">
            <mxPoint x="517" y="1110" as="sourcePoint" />
            <mxPoint x="480" y="1110" as="targetPoint" />
          </mxGeometry>
        </mxCell>
        <mxCell id="FpdwGnJEtoLcLrsZp1eF-189" value="" style="shape=flexArrow;endArrow=classic;html=1;rounded=0;" edge="1" parent="1">
          <mxGeometry width="50" height="50" relative="1" as="geometry">
            <mxPoint x="127" y="1110" as="sourcePoint" />
            <mxPoint x="90" y="1110" as="targetPoint" />
          </mxGeometry>
        </mxCell>
        <mxCell id="FpdwGnJEtoLcLrsZp1eF-190" value="" style="shape=flexArrow;endArrow=classic;html=1;rounded=0;" edge="1" parent="1">
          <mxGeometry width="50" height="50" relative="1" as="geometry">
            <mxPoint x="517" y="1730" as="sourcePoint" />
            <mxPoint x="480" y="1730" as="targetPoint" />
          </mxGeometry>
        </mxCell>
        <mxCell id="FpdwGnJEtoLcLrsZp1eF-191" value="" style="shape=flexArrow;endArrow=classic;html=1;rounded=0;" edge="1" parent="1">
          <mxGeometry width="50" height="50" relative="1" as="geometry">
            <mxPoint x="127" y="1730" as="sourcePoint" />
            <mxPoint x="90" y="1730" as="targetPoint" />
          </mxGeometry>
        </mxCell>
        <mxCell id="FpdwGnJEtoLcLrsZp1eF-192" value="" style="shape=flexArrow;endArrow=classic;html=1;rounded=0;" edge="1" parent="1">
          <mxGeometry width="50" height="50" relative="1" as="geometry">
            <mxPoint x="517" y="2338" as="sourcePoint" />
            <mxPoint x="480" y="2338" as="targetPoint" />
          </mxGeometry>
        </mxCell>
        <mxCell id="FpdwGnJEtoLcLrsZp1eF-193" value="" style="shape=flexArrow;endArrow=classic;html=1;rounded=0;" edge="1" parent="1">
          <mxGeometry width="50" height="50" relative="1" as="geometry">
            <mxPoint x="127" y="2338" as="sourcePoint" />
            <mxPoint x="90" y="2338" as="targetPoint" />
          </mxGeometry>
        </mxCell>
        <mxCell id="FpdwGnJEtoLcLrsZp1eF-194" value="&lt;font style=&quot;font-size: 24px;&quot; face=&quot;Comic Sans MS&quot;&gt;MULTIPLAYER&lt;/font&gt;" style="rounded=1;whiteSpace=wrap;html=1;movable=1;resizable=1;rotatable=1;deletable=1;editable=1;locked=0;connectable=1;" vertex="1" parent="1">
          <mxGeometry x="503" y="700" width="210" height="100" as="geometry" />
        </mxCell>
        <mxCell id="FpdwGnJEtoLcLrsZp1eF-195" value="&lt;font face=&quot;Comic Sans MS&quot;&gt;LOCALHOST&lt;/font&gt;" style="rounded=1;whiteSpace=wrap;html=1;movable=1;resizable=1;rotatable=1;deletable=1;editable=1;locked=0;connectable=1;" vertex="1" parent="1">
          <mxGeometry x="523" y="830" width="170" height="40" as="geometry" />
        </mxCell>
        <mxCell id="FpdwGnJEtoLcLrsZp1eF-196" value="&lt;font face=&quot;Comic Sans MS&quot;&gt;ONLINE&lt;/font&gt;" style="rounded=1;whiteSpace=wrap;html=1;movable=1;resizable=1;rotatable=1;deletable=1;editable=1;locked=0;connectable=1;" vertex="1" parent="1">
          <mxGeometry x="523" y="895" width="170" height="40" as="geometry" />
        </mxCell>
        <mxCell id="FpdwGnJEtoLcLrsZp1eF-197" value="&lt;font style=&quot;font-size: 24px;&quot; face=&quot;Comic Sans MS&quot;&gt;ABOUT US&lt;/font&gt;" style="rounded=1;whiteSpace=wrap;html=1;movable=1;resizable=1;rotatable=1;deletable=1;editable=1;locked=0;connectable=1;" vertex="1" parent="1">
          <mxGeometry x="113" y="1320" width="210" height="100" as="geometry" />
        </mxCell>
        <mxCell id="FpdwGnJEtoLcLrsZp1eF-198" value="" style="rounded=0;whiteSpace=wrap;html=1;movable=1;resizable=1;rotatable=1;deletable=1;editable=1;locked=0;connectable=1;" vertex="1" parent="1">
          <mxGeometry x="83" y="1440" width="270" height="250" as="geometry" />
        </mxCell>
        <mxCell id="FpdwGnJEtoLcLrsZp1eF-199" value="" style="endArrow=none;html=1;rounded=0;exitX=0;exitY=1;exitDx=0;exitDy=0;movable=1;resizable=1;rotatable=1;deletable=1;editable=1;locked=0;connectable=1;" edge="1" parent="1" source="FpdwGnJEtoLcLrsZp1eF-198">
          <mxGeometry width="50" height="50" relative="1" as="geometry">
            <mxPoint x="213" y="1640" as="sourcePoint" />
            <mxPoint x="353" y="1440" as="targetPoint" />
          </mxGeometry>
        </mxCell>
        <mxCell id="FpdwGnJEtoLcLrsZp1eF-200" value="" style="endArrow=none;html=1;rounded=0;entryX=0;entryY=0;entryDx=0;entryDy=0;exitX=1;exitY=1;exitDx=0;exitDy=0;movable=1;resizable=1;rotatable=1;deletable=1;editable=1;locked=0;connectable=1;" edge="1" parent="1" source="FpdwGnJEtoLcLrsZp1eF-198" target="FpdwGnJEtoLcLrsZp1eF-198">
          <mxGeometry width="50" height="50" relative="1" as="geometry">
            <mxPoint x="213" y="1640" as="sourcePoint" />
            <mxPoint x="263" y="1590" as="targetPoint" />
          </mxGeometry>
        </mxCell>
      </root>
    </mxGraphModel>
  </diagram>
</mxfile>
